<?xml version="1.0" encoding="utf-8"?>
<!-- Generator: Adobe Illustrator 21.1.0, SVG Export Plug-In . SVG Version: 6.00 Build 0)  -->
<svg version="1.1" id="Icons" xmlns="http://www.w3.org/2000/svg" xmlns:xlink="http://www.w3.org/1999/xlink" x="0px" y="0px"
	 viewBox="0 0 427.3 408.8" style="enable-background:new 0 0 427.3 408.8;" xml:space="preserve">
<style type="text/css">
	.st0{fill:#DA1332;}
</style>
<g>
	<path class="st0" d="M247.6,281.3c-3.8-0.2-6.4-2.5-8.9-5c-21.9-21.9-43.7-43.9-65.8-65.6c-4.8-4.8-4.4-8,0.2-12.6
		c21.8-21.5,43.4-43.3,65.1-65c4.6-4.6,9.4-8.5,15.5-2.5s4.6,11.6-1.1,17.3c-16.6,16.4-32.8,33.2-49.6,49.3
		c-5.9,5.7-5.4,9.2,0.2,14.6c17,16.4,33.5,33.3,50.2,50.1c3.3,3.3,6,6.9,3.4,11.9C254.8,277.6,252.4,280.9,247.6,281.3z"/>
</g>
</svg>
