<?xml version="1.0" encoding="utf-8"?>
<!-- Generator: Adobe Illustrator 21.1.0, SVG Export Plug-In . SVG Version: 6.00 Build 0)  -->
<svg version="1.1" id="圖層_1" xmlns="http://www.w3.org/2000/svg" xmlns:xlink="http://www.w3.org/1999/xlink" x="0px" y="0px"
	 viewBox="0 0 253.8 187.5" style="enable-background:new 0 0 253.8 187.5;" xml:space="preserve">
<style type="text/css">
	.st0{fill:#DA1332;}
</style>
<g>
	<path class="st0" d="M189.9,53.5h-126c-4.7,0-11,6.4-11.1,13.8c-0.1,21.9-0.1,43.8,0.1,65.6c0.1,7.7,5.7,13.2,13.3,13.2
		c20.2,0.1,40.4,0.1,60.7,0.1s40.5-0.1,60.7-0.1c7.7,0,13.3-5.6,13.3-13.2c0.1-21.8,0.1-43.7,0.1-65.6
		C200.9,59.9,194.6,53.5,189.9,53.5z M58.6,69c0.1-6.7,2.9-9.4,9.8-9.4h117.1c6.8,0,9.6,2.7,9.8,9.4c0.1,9.5,0.1,9.5-9.4,9.5H68
		C58.5,78.5,58.5,78.5,58.6,69z M195.1,130.9c0,6.7-2.9,9.5-9.7,9.5h-117c-6.8,0-9.7-2.8-9.7-9.5c-0.1-10,0.1-20-0.1-30
		c-0.1-2.8,0.8-3.4,3.5-3.4c21.6,0.1,43.2,0.1,64.8,0.1s43.2,0.1,64.8-0.1c2.7,0,3.6,0.6,3.5,3.4
		C195.1,110.9,195.2,120.9,195.1,130.9z"/>
</g>
</svg>
