<?xml version="1.0" encoding="utf-8"?>
<!-- Generator: Adobe Illustrator 21.1.0, SVG Export Plug-In . SVG Version: 6.00 Build 0)  -->
<svg version="1.1" id="圖層_1" xmlns="http://www.w3.org/2000/svg" xmlns:xlink="http://www.w3.org/1999/xlink" x="0px" y="0px"
	 viewBox="0 0 253.8 187.5" style="enable-background:new 0 0 253.8 187.5;" xml:space="preserve">
<style type="text/css">
	.st0{display:none;}
	.st1{display:inline;}
	.st2{fill:#808285;}
	.st3{fill:#FEFEFE;}
	.st4{fill:#F9F9F9;}
	.st5{display:inline;fill:#FF294A;}
	.st6{fill:none;}
</style>
<g id="Group-4_11_" transform="translate(209.333333, 6.000000)" class="st0">
	<g class="st1">
		<path class="st2" d="M348.3,618.3c-0.3,0-0.6,0.1-0.6-0.4c0-2.3-1.5-3.7-3.7-3.7c-2.1,0-3.6,1-4.8,2.7c-0.2,0.2-0.3,0.5-0.5,0.8
			c-0.5-0.6-0.8-1.2-1.3-1.8c-1.6-1.7-3.8-2.2-5.8-1.3c-1.4,0.6-2.1,1.8-2,3.3c0,0.4-0.1,0.4-0.4,0.4c-0.3,0-0.6,0-0.9,0
			c-1.2,0.1-2,0.7-2.3,1.9c0,0.2,0,0.4-0.2,0.5v0.4c0.2,1.3,0,2.5,0.1,3.8c0,0,0,0,0.1,0.1c0,0.3,0.2,0.6,0.5,0.8
			c0.4,0.3,0.5,0.6,0.5,1.1c0,2.7,0,5.4,0,8.1c0,2,1,3.1,3,3.1c5.7,0,11.3,0,17,0c1.8,0,2.9-1.1,2.9-3c0-2.8,0-5.6,0-8.3
			c0-0.4,0-0.7,0.4-0.9c0.5-0.3,0.6-0.8,0.6-1.3c0-1.1,0-2.3,0-3.4C350.9,619.5,349.9,618.5,348.3,618.3z M331.8,615.8
			c1.3-0.8,2.7-0.7,4,0.1c0.7,0.5,1.3,1.1,1.7,1.9c0.3,0.4,0.1,0.5-0.3,0.5c-1,0-1.9,0-2.9,0c-0.9,0-1.8,0-2.7,0
			c-0.7,0-0.8-0.3-0.8-0.8C330.8,616.7,331.2,616.2,331.8,615.8z M338.2,631.6c0,1.6,0,3.2,0,4.8c0,0.5-0.1,0.6-0.6,0.6
			c-2.5,0-5,0-7.5,0c-1.4,0-2-0.6-2-2c0-2.7,0-5.4,0-8.1c0-0.5,0.1-0.6,0.6-0.6c2.9,0,5.9,0,8.8,0c0.5,0,0.7,0.2,0.6,0.7
			C338.1,628.5,338.2,630,338.2,631.6z M338.2,624.5c0,0.5-0.2,0.6-0.6,0.6c-1.6,0-3.2,0-4.8,0c-1.6,0-3.2,0-4.8,0
			c-0.6,0-0.9-0.3-0.9-0.9c0-1.1,0-2.2,0.1-3.2c0-1,0.6-1.5,1.6-1.5c2,0,4.1,0,6.1,0c0.9,0,1.8,0,2.8,0c0.4,0,0.6,0.1,0.6,0.5
			C338.1,621.5,338.1,623,338.2,624.5z M339.9,618c1-2,3.5-3.7,5.9-2.1c0.6,0.4,0.9,1,0.9,1.8c0,0.4-0.2,0.7-0.7,0.6
			c-0.9,0-1.9,0-2.8,0c-1,0-1.9,0-2.9,0C340,618.3,339.7,618.3,339.9,618z M348.8,635.1c0,1.3-0.6,1.9-1.9,1.9c-2.4,0-4.7,0-7.1,0
			c-0.5,0-0.6-0.2-0.6-0.6c0-1.6,0-3.2,0-4.8c0-1.6,0-3.1,0-4.7c0-0.5,0.1-0.7,0.6-0.7c2.8,0,5.5,0,8.3,0c0.5,0,0.6,0.1,0.6,0.6
			C348.8,629.6,348.8,632.3,348.8,635.1z M349.8,624c0,1,0,1.1-1.1,1.1h-4.4c-1.5,0-3,0-4.5,0c-0.5,0-0.6-0.1-0.6-0.6
			c0-1.5,0-3,0-4.6c0-0.5,0.1-0.6,0.6-0.6c2.7,0,5.3,0,7.9,0c1.5,0,2,0.5,2,2V624z"/>
	</g>
</g>
<g id="Group-5_3_" transform="translate(304.000000, 6.000000)" class="st0">
	<g class="st1">
		<path class="st3" d="M324.9,636c0,0,0.1,0,0.1,0v0l0,0C325,636.1,324.9,636.1,324.9,636z"/>
		<path class="st3" d="M328.4,638.4c0,0,0,0.1,0,0.1C328.3,638.5,328.3,638.4,328.4,638.4C328.4,638.4,328.4,638.4,328.4,638.4z"/>
		<path class="st2" d="M326,638.4C326,638.4,326,638.4,326,638.4L326,638.4c0.1,0,0.1,0,0.2,0c0.7,0,1.4,0.1,2.1,0H326z M325,636
			C325,636,325,636.1,325,636c-0.1,0.3,0,0.5-0.1,0.7C325.1,636.6,325,636.3,325,636L325,636z"/>
		<path class="st2" d="M349,634.4c-0.6-1-1.5-1.6-2.6-1.9c-1.1-0.3-2.3-0.5-3.3-0.9c-0.7-0.3-1.4-0.6-1.9-1.1
			c-0.8-0.7-1-1.6-0.5-2.6c0.1-0.3,0.3-0.5,0.5-0.7c1.4-1.5,1.9-3.4,1.9-5.4c0-1,0.1-2.1-0.1-3.1c-0.5-2.7-2.8-4.2-5.3-4.3
			c-2.2-0.1-4.6,1.2-5.3,3.8c-0.8,2.8-0.5,5.4,1,7.9c0.3,0.5,0.6,1,1,1.5c0.7,1.1,0.6,1.8-0.4,2.7c-0.8,0.7-1.7,1.1-2.6,1.4
			c-0.7,0.2-1.5,0.4-2.2,0.5c-1.8,0.5-3.1,1.4-3.6,3.3c0,0.1-0.1,0.3-0.2,0.4c0,0-0.1,0-0.1,0c0,0.3,0.1,0.5-0.1,0.7v0.9
			c-0.2,0.7,0.1,1,0.9,0.9c0.1,0,0.2,0,0.3,0v-0.1h0c0,0,0,0,0-0.1h2.3c0,0,0-0.1,0.1-0.1c0.4-0.2,0.8-0.1,1.1-0.1h18.6
			c1.5,0,1.4,0.1,1.4-1.4C349.6,635.9,349.4,635.1,349,634.4z M347.9,637.2c-3.5,0-7.1,0-10.6,0c0,0,0,0,0,0c-3.5,0-7,0-10.5,0
			c-0.6,0-0.7-0.1-0.6-0.7c0.2-1.7,1.1-2.7,2.7-3.2c0.8-0.2,1.6-0.4,2.4-0.6c1.1-0.3,2.1-0.8,3-1.5c1.5-1.1,1.7-2.5,0.7-4
			c-0.8-1.3-1.6-2.5-2-4c-0.4-1.7-0.3-3.4,0.3-5.1c0.6-1.7,2.6-3,4.4-2.8c2.4,0.3,3.9,1.6,4.3,3.6c0.3,1.6,0.1,3.2-0.1,4.7
			c-0.1,1.1-0.7,2-1.4,2.8c-0.6,0.8-1,1.6-1,2.6c0,0.6,0.2,1.1,0.5,1.5c1,1.2,2.2,1.7,3.6,2.1c0.8,0.2,1.7,0.4,2.5,0.6
			c1.6,0.4,2.5,1.5,2.6,3.1C348.6,637,348.5,637.2,347.9,637.2z"/>
		<path class="st4" d="M326.1,638.4C326.1,638.5,326.1,638.5,326.1,638.4C326.1,638.5,326.1,638.5,326.1,638.4L326.1,638.4
			L326.1,638.4C326,638.4,326,638.4,326.1,638.4C326.1,638.4,326.1,638.4,326.1,638.4z"/>
	</g>
</g>
<g class="st0">
	<path class="st5" d="M361.7,640.6c0-4.3,0-8.6,0-12.9c0.4-1,1-1.7,2-2c7.6,0,15.3,0,22.9,0c0.9,0,2,1.2,2,2.5c0,4,0,7.9,0,11.9
		c0,1.4-1,2.4-2.4,2.4c-7.3,0-14.6,0-21.9,0c-1.1,0-1.8-0.5-2.3-1.5C361.8,640.8,361.9,640.6,361.7,640.6z M375.1,633.6
		c-3.9,0-7.8,0-11.7,0c-0.5,0-0.7,0.1-0.7,0.6c0,1.8,0,3.6,0,5.5c0,1.2,0.5,1.7,1.8,1.7c7.1,0,14.1,0,21.2,0c1.2,0,1.8-0.5,1.8-1.7
		c0-1.8,0-3.6,0-5.5c0-0.5-0.1-0.6-0.6-0.6C383,633.6,379,633.6,375.1,633.6z M375.1,630.2c3.6,0,7.1,0,10.7,0c1.7,0,1.7,0,1.7-1.7
		c0-1.2-0.5-1.7-1.8-1.7c-4.3,0-8.6,0-13,0c-2.8,0-5.6,0-8.4,0c-1,0-1.6,0.5-1.6,1.6c0,0.4,0,0.7,0,1.1c0,0.6,0.1,0.7,0.7,0.7
		C367.3,630.2,371.2,630.2,375.1,630.2z"/>
</g>
<g id="Group-3_3_" transform="translate(125.666667, 7.000000)">
	<g>
		<path class="st2" d="M79.9,54c-4.8-6.4-9.3-13.1-13.7-19.8c-2.4-3.6-5.5-6-9.8-6.9c-0.1,0-0.1,0-0.1,0c-32.8,0-65.7,0.1-98.6,0.1
			h-0.2c-4,0.9-7.1,3.2-9,6.6c-4.2,7.1-9.4,13.3-14.4,19.8c-1.5,1.9-2.7,3.8-2.7,6.3c-0.2,8.6,3.1,15.5,10.4,19.9
			c2.6,1.5,3.2,3.2,3.2,5.9c-0.1,20.6-0.1,41.3-0.1,62c0,6.2,3.1,9.8,9.2,10.8c1.7,0.3,3.4,0.4,5.1,0.4h94.8c1.3,0,2.6-0.1,3.9-0.2
			c7.3-1,10.3-4.5,10.3-11.8c0-19.8,0.1-39.5-0.1-59.3c0-3.7,0.4-6.4,4.3-8.1c3.4-1.3,5.7-4.3,7.3-7.6C82.7,66.2,84.5,59.9,79.9,54z
			 M61.9,147.3c0,4.2-1.3,5.2-6.4,5.2c-16.4,0.1-32.7,0.1-49,0.1c-16.1,0-32.1,0-48.2-0.1c-6.3,0-7-0.7-7-6.9
			c0-19.7,0-39.2-0.1-58.9c0-2.5,0.1-4.5,3.4-4.2c0.9,0.1,1.8-0.5,2.7-0.7c3.1-0.8,5.4-4.4,8.1-4.3c2.6,0.1,4.9,3.2,7.8,4.2
			c6.4,2,12.3,1.1,17.5-3.1c1.7-1.3,2.7-1.6,4.6-0.1c7.3,5.7,15.5,5.7,22.9,0.2c2.1-1.6,3.3-1.5,5.3,0.1c7.3,5.4,15.4,5.4,22.6-0.2
			c2.1-1.6,3.2-1.3,4.9,0.1c2.4,2,5.2,3.2,8.2,3.6c2.2,0.3,2.7,1,2.7,3.2C61.9,106.2,61.9,126.7,61.9,147.3z M71.5,72.5
			C66.9,77.2,60,77.7,55,73.9c-2.1-1.6-3.1-4.8-6.5-4.8c-3.2,0.1-4.3,3.2-6.5,4.8c-5.1,3.8-11.1,3.4-16.1-1.3
			c-5.1-4.8-5.2-4.8-10-0.1C10.3,78,2.7,77.8-2.6,72c-3.7-4-4.8-4-8.8,0c-5.9,6-13.6,5.9-19.3-0.4c-3.1-3.4-4.7-3.5-8,0
			c-3.8,3.9-8.1,6-13.5,4.1c-6-2.1-9.2-6.7-9.9-13c-0.3-1.9,0.2-3.5,1.4-5.1C-55.6,51-50.2,44.6-46,37.2c1.7-3,4.7-3.8,8.1-3.8
			c15,0.1,30,0.1,45,0.1c14.9,0,29.8,0.1,44.7-0.1c4.5,0,7.5,1.7,9.7,5.4c3.5,5.9,7.4,11.5,11.6,16.9C77.4,61.1,76.8,67.3,71.5,72.5
			z"/>
	</g>
</g>
<g id="Group-4_2_" transform="translate(209.333333, 6.000000)">
	<g>
		<path class="st2" d="M383.7,72.5c-1.5-0.2-3.2,0.3-3.3-2.4c-0.2-12.4-8-20.1-20.6-20.4c-11.6-0.2-19.9,5.6-26.2,14.9
			c-0.9,1.3-1.8,2.7-2.8,4.4c-1-1.7-1.9-3.1-2.8-4.4c-6.3-9.3-14.6-15.1-26.2-14.9c-12.5,0.3-20.3,8-20.6,20.4
			c-0.1,2.8-1.7,2.3-3.3,2.4c-9,0.8-14.2,6.4-14.3,15.5c-0.1,6.2,0.1,12.4,0,18.6c-0.1,3,0.8,5.7,3.3,7.3c2.1,1.3,2.2,3,2.2,5.1
			c-0.1,15.3-0.1,30.6,0,46c0.1,10.1,5.9,16.3,15.9,16.4c15.2,0.1,30.3,0.1,45.4,0.1h0.7c15.1,0,30.2,0,45.4-0.1
			c10-0.1,15.9-6.2,15.9-16.4c0.1-15.4,0.1-30.7,0-46c0-2.1,0.1-3.8,2.2-5.1c2.5-1.6,3.3-4.4,3.3-7.3c-0.1-6.2,0.1-12.4,0-18.6
			C397.9,78.9,392.7,73.3,383.7,72.5z M292.2,59.3c13.3-8.9,26.9,0.7,32.4,11.4c1,1.9-0.8,1.7-1.8,1.7c-5.3,0.1-10.6,0.1-15.9,0.1
			c-5.2,0-10.4-0.1-15.6,0c-2.6,0.1-3.7-1-3.9-3.5C287,64.7,288.8,61.6,292.2,59.3z M328,172.2c0.1,2.4-0.6,3.3-3.1,3.3
			c-13.1-0.1-26.1,0-39.1-0.1c-6.9-0.1-10.3-3.4-10.3-10.4c-0.1-15.2,0.1-30.4-0.1-45.6c0-2.7,0.9-3.4,3.5-3.4
			c15.2,0.1,30.4,0.1,45.6-0.1c3,0,3.6,1,3.5,3.7c-0.1,8.7-0.1,17.2-0.1,25.8C327.9,154.4,327.8,163.3,328,172.2z M328,106.8
			c0.1,2.5-0.7,3.3-3.2,3.3c-8.3-0.2-16.5-0.1-24.7-0.1h-24c-5.9,0-6.1-0.2-6.1-5.9V89.6c0.1-8.1,2.9-11,11-11.1
			c14.5-0.1,29.2,0,43.8-0.1c2.4,0,3.3,0.7,3.3,3.2C327.8,90,327.8,98.4,328,106.8z M337.3,70.7c5.5-10.7,19.1-20.3,32.4-11.4
			c3.4,2.3,5.2,5.4,4.8,9.6c-0.2,2.4-1.2,3.6-3.9,3.5c-5.2-0.1-10.4,0-15.6,0c-5.3,0-10.6,0-15.9-0.1
			C338,72.4,336.3,72.6,337.3,70.7z M386.4,165c0,6.9-3.4,10.3-10.3,10.4c-13.1,0.1-26.1,0-39.1,0.1c-2.6,0-3.2-0.9-3.1-3.3
			c0.1-8.9,0.1-17.7,0.1-26.6c0-8.6,0.1-17.2-0.1-25.8c-0.1-2.7,0.5-3.7,3.5-3.7c15.2,0.2,30.4,0.1,45.6,0.1
			c2.6-0.1,3.5,0.7,3.5,3.4C386.4,134.6,386.5,149.8,386.4,165z M391.9,104.1c-0.1,5.7-0.2,5.9-6.1,5.9h-24
			c-8.3,0-16.5-0.1-24.7,0.1c-2.5,0.1-3.3-0.8-3.2-3.3c0.1-8.4,0.1-16.8,0-25.1c-0.1-2.5,0.8-3.2,3.3-3.2c14.6,0.1,29.2,0,43.8,0.1
			c8.2,0.1,11,3,11,11.1V104.1z"/>
	</g>
</g>
<g id="Group-5_2_" transform="translate(304.000000, 6.000000)">
	<g>
		<path class="st2" d="M522.8,160.4c-3.2-5.6-8-9-14.2-10.6c-6.2-1.6-12.5-2.9-18.5-5.1c-3.9-1.4-7.6-3.2-10.7-6
			c-4.6-4-5.6-8.7-2.9-14.3c0.7-1.5,1.4-2.9,2.5-4.1c7.8-8.4,10.3-18.7,10.4-29.7c0.1-5.7,0.4-11.4-0.6-17
			c-2.7-15-15.5-23.3-29.5-23.8c-14,0.6-26.8,8.8-29.5,23.8c-1,5.7-0.7,11.4-0.6,17c0.2,11,2.6,21.3,10.4,29.7
			c1.1,1.2,1.8,2.6,2.5,4.1c2.6,5.6,1.7,10.3-2.9,14.3c-3.1,2.8-6.8,4.6-10.7,6c-6,2.2-12.3,3.5-18.5,5.1c-6.2,1.5-11,5-14.2,10.6
			c-2.3,4-3.4,8.4-3.3,13c0.1,8.3-0.7,7.9,7.6,7.9h118.3c8.3,0,7.6,0.4,7.6-7.9C526.1,168.8,525.1,164.5,522.8,160.4z M517.1,176.1
			c-19.3-0.2-38.5-0.1-57.8-0.1s-38.5-0.1-57.8,0.1c-3.4,0-3.9-1.2-3.7-4.1c0.7-9,5.5-15,14.3-17.3c4.6-1.2,9.3-2.1,13.9-3.4
			c7.7-2.1,14.7-5.3,19.9-11.7c2-2.5,3-5.1,3-8.4c0.1-5.6-2-10.3-5.5-14.5c-3.7-4.5-7.1-9.4-7.8-15.4c-1.1-8.7-2-17.4-0.6-26.1
			c1.8-11.1,10.5-18.6,23.5-20c0.2,0,0.5-0.1,0.7-0.1c0.2,0,0.5,0.1,0.7,0.1c13,1.4,21.7,8.9,23.5,20c1.4,8.8,0.5,17.5-0.6,26.1
			c-0.7,6-4,10.9-7.8,15.4c-3.5,4.2-5.6,8.9-5.5,14.5c0,3.3,1,5.9,3,8.4c5.2,6.3,12.2,9.6,19.9,11.7c4.6,1.3,9.3,2.2,13.9,3.4
			c8.8,2.3,13.7,8.3,14.3,17.3C521,174.9,520.5,176.1,517.1,176.1z"/>
	</g>
</g>
<g>
	<path class="st2" d="M121.6,361.7h-126c-4.7,0-11,6.4-11.1,13.8c-0.1,21.9-0.1,43.8,0.1,65.6c0.1,7.7,5.7,13.2,13.3,13.2
		c20.2,0.1,40.4,0.1,60.7,0.1s40.5-0.1,60.7-0.1c7.7,0,13.3-5.6,13.3-13.2c0.1-21.8,0.1-43.7,0.1-65.6
		C132.6,368.1,126.3,361.7,121.6,361.7z M-9.7,377.1c0.1-6.7,2.9-9.4,9.8-9.4h117.1c6.8,0,9.6,2.7,9.8,9.4c0.1,9.5,0.1,9.5-9.4,9.5
		H-0.3C-9.8,386.6-9.8,386.6-9.7,377.1z M126.8,439.1c0,6.7-2.9,9.5-9.7,9.5H0.1c-6.8,0-9.7-2.8-9.7-9.5c-0.1-10,0.1-20-0.1-30
		c-0.1-2.8,0.8-3.4,3.5-3.4c21.6,0.1,43.2,0.1,64.8,0.1s43.2,0.1,64.8-0.1c2.7,0,3.6,0.6,3.5,3.4C126.8,419.1,126.9,429,126.8,439.1
		z"/>
</g>
<line class="st6" x1="540.3" y1="75" x2="540.3" y2="74.9"/>
</svg>
