<?xml version="1.0" encoding="utf-8"?>
<!-- Generator: Adobe Illustrator 21.1.0, SVG Export Plug-In . SVG Version: 6.00 Build 0)  -->
<svg version="1.1" id="圖層_1" xmlns="http://www.w3.org/2000/svg" xmlns:xlink="http://www.w3.org/1999/xlink" x="0px" y="0px"
	 viewBox="0 0 253.8 187.5" style="enable-background:new 0 0 253.8 187.5;" xml:space="preserve">
<style type="text/css">
	.st0{display:none;}
	.st1{display:inline;}
	.st2{fill:#808285;}
	.st3{fill:#FEFEFE;}
	.st4{fill:#F9F9F9;}
	.st5{display:inline;fill:#FF294A;}
	.st6{fill:none;}
</style>
<g id="Group-4_2_" transform="translate(209.333333, 6.000000)">
	<g>
		<path class="st2" d="M-23.8,44.7c-1.5-0.2-3.2,0.3-3.3-2.4c-0.2-12.4-8-20.1-20.6-20.4c-11.6-0.2-19.9,5.6-26.2,14.9
			c-0.9,1.3-1.8,2.7-2.8,4.4c-1-1.7-1.9-3.1-2.8-4.4c-6.3-9.3-14.6-15.1-26.2-14.9c-12.5,0.3-20.3,8-20.6,20.4
			c-0.1,2.8-1.7,2.3-3.3,2.4c-9,0.8-14.2,6.4-14.3,15.5c-0.1,6.2,0.1,12.4,0,18.6c-0.1,3,0.8,5.7,3.3,7.3c2.1,1.3,2.2,3,2.2,5.1
			c-0.1,15.3-0.1,30.6,0,46c0.1,10.1,5.9,16.3,15.9,16.4c15.2,0.1,30.3,0.1,45.4,0.1h0.7c15.1,0,30.2,0,45.4-0.1
			c10-0.1,15.9-6.2,15.9-16.4c0.1-15.4,0.1-30.7,0-46c0-2.1,0.1-3.8,2.2-5.1c2.5-1.6,3.3-4.4,3.3-7.3c-0.1-6.2,0.1-12.4,0-18.6
			C-9.6,51.1-14.9,45.4-23.8,44.7z M-115.4,31.5c13.3-8.9,26.9,0.7,32.4,11.4c1,1.9-0.8,1.7-1.8,1.7c-5.3,0.1-10.6,0.1-15.9,0.1
			c-5.2,0-10.4-0.1-15.6,0c-2.6,0.1-3.7-1-3.9-3.5C-120.6,36.9-118.8,33.7-115.4,31.5z M-79.6,144.3c0.1,2.4-0.6,3.3-3.1,3.3
			c-13.1-0.1-26.1,0-39.1-0.1c-6.9-0.1-10.3-3.4-10.3-10.4c-0.1-15.2,0.1-30.4-0.1-45.6c0-2.7,0.9-3.4,3.5-3.4
			c15.2,0.1,30.4,0.1,45.6-0.1c3,0,3.6,1,3.5,3.7c-0.1,8.7-0.1,17.2-0.1,25.8C-79.7,126.6-79.7,135.4-79.6,144.3z M-79.6,78.9
			c0.1,2.5-0.7,3.3-3.2,3.3c-8.3-0.2-16.5-0.1-24.7-0.1h-24c-5.9,0-6.1-0.2-6.1-5.9V61.8c0.1-8.1,2.9-11,11-11.1
			c14.5-0.1,29.2,0,43.8-0.1c2.4,0,3.3,0.7,3.3,3.2C-79.7,62.1-79.7,70.5-79.6,78.9z M-70.3,42.9c5.5-10.7,19.1-20.3,32.4-11.4
			c3.4,2.3,5.2,5.4,4.8,9.6c-0.2,2.4-1.2,3.6-3.9,3.5c-5.2-0.1-10.4,0-15.6,0c-5.3,0-10.6,0-15.9-0.1
			C-69.5,44.5-71.3,44.8-70.3,42.9z M-21.1,137.2c0,6.9-3.4,10.3-10.3,10.4c-13.1,0.1-26.1,0-39.1,0.1c-2.6,0-3.2-0.9-3.1-3.3
			c0.1-8.9,0.1-17.7,0.1-26.6c0-8.6,0.1-17.2-0.1-25.8c-0.1-2.7,0.5-3.7,3.5-3.7c15.2,0.2,30.4,0.1,45.6,0.1
			c2.6-0.1,3.5,0.7,3.5,3.4C-21.2,106.7-21.1,121.9-21.1,137.2z M-15.6,76.2c-0.1,5.7-0.2,5.9-6.1,5.9h-24c-8.3,0-16.5-0.1-24.7,0.1
			c-2.5,0.1-3.3-0.8-3.2-3.3c0.1-8.4,0.1-16.8,0-25.1c-0.1-2.5,0.8-3.2,3.3-3.2c14.6,0.1,29.2,0,43.8,0.1c8.2,0.1,11,3,11,11.1V76.2
			z"/>
	</g>
</g>
</svg>
